<svg width="83" height="88" viewBox="0 0 83 88" fill="none" xmlns="http://www.w3.org/2000/svg">
<path d="M35.9062 2.38738L34.7871 3.51086C34.7321 3.5658 34.7329 3.62075 34.7893 3.67569C35.2751 4.14851 35.967 4.73411 36.1426 5.33922C36.468 6.47138 35.1948 7.51461 34.1494 7.05264C33.6246 6.82057 33.1344 6.21545 32.6854 5.77517C32.6291 5.71878 32.5719 5.71878 32.5141 5.77517C32.0673 6.21762 31.5728 6.83358 31.0349 7.06131C29.9809 7.50593 28.7099 6.43668 29.0699 5.30886C29.2586 4.71675 29.9722 4.12899 30.4558 3.66051C30.4647 3.65199 30.4718 3.64179 30.4767 3.63052C30.4816 3.61924 30.4842 3.60711 30.4845 3.59481C30.4847 3.58251 30.4824 3.5703 30.4779 3.55887C30.4733 3.54744 30.4666 3.53702 30.458 3.52821L29.2109 2.23339C28.8624 1.45982 28.9904 0.827231 29.5948 0.335618C30.7508 -0.601338 31.7897 0.64143 32.5054 1.40704C32.5182 1.42057 32.5336 1.43138 32.5507 1.43883C32.5677 1.44628 32.5861 1.45023 32.6047 1.45043C32.6234 1.45063 32.6418 1.44709 32.659 1.44001C32.6763 1.43293 32.6919 1.42245 32.705 1.40921C33.2298 0.866994 34.0041 -0.135028 34.8695 0.0189621C36.0342 0.225006 36.4723 1.32463 35.9062 2.38738Z" fill="#FE4035"/>
<path d="M29.2108 2.2334L30.4579 3.52822C30.4665 3.53703 30.4733 3.54745 30.4778 3.55888C30.4823 3.57031 30.4846 3.58253 30.4844 3.59482C30.4842 3.60712 30.4815 3.61925 30.4766 3.63053C30.4717 3.6418 30.4646 3.652 30.4558 3.66052C29.9721 4.129 29.2585 4.71676 29.0698 5.30887C28.7098 6.43669 29.9808 7.50594 31.0348 7.06132C31.5727 6.83359 32.0672 6.21763 32.514 5.77518C32.5719 5.71879 32.629 5.71879 32.6854 5.77518C33.1343 6.21546 33.6245 6.82058 34.1494 7.05265C35.1948 7.51462 36.4679 6.47139 36.1426 5.33923C35.9669 4.73412 35.275 4.14852 34.7892 3.6757C34.7328 3.62076 34.7321 3.56581 34.787 3.51087L35.9061 2.38739C47.6376 3.76897 57.4995 11.848 61.6768 22.7835L56.4129 22.7857C56.3363 22.7857 56.2972 22.7467 56.2958 22.6686C56.2828 21.4656 56.282 20.2633 56.2936 19.0617C56.3196 16.3203 54.3503 13.646 51.7021 12.8023C51.0587 12.5985 50.0935 12.4958 48.8066 12.4944C44.6843 12.4871 40.5627 12.4857 36.4419 12.49C34.1927 12.4922 32.796 12.477 31.1737 13.5701C29.2332 14.8772 28.2435 16.7446 28.2045 19.1723C28.1842 20.3363 28.1625 21.509 28.1394 22.6903C28.1379 22.7655 28.0989 22.8031 28.0223 22.8031C20.5469 22.7655 15.1485 22.7814 11.8272 22.8508C10.7211 22.8746 10.4066 23.7248 10.4001 24.7377C10.3929 26.0173 10.3936 27.2977 10.4023 28.5788C10.4088 29.7586 11.0118 30.225 12.1895 30.2293C13.0556 30.2336 13.9173 30.2351 14.7748 30.2336C14.7909 30.2336 14.8063 30.2398 14.8177 30.2508C14.8291 30.2618 14.8355 30.2767 14.8355 30.2922L14.8333 60.8365C3.23198 53.2975 -2.51121 39.3972 1.04575 25.9479C4.48993 12.9238 15.6813 3.35037 29.2108 2.2334ZM4.46607 33.205C4.46607 33.011 4.42787 32.819 4.35364 32.6398C4.27942 32.4606 4.17062 32.2978 4.03347 32.1606C3.89632 32.0234 3.73349 31.9146 3.55429 31.8404C3.37509 31.7662 3.18303 31.728 2.98907 31.728C2.59734 31.728 2.22166 31.8836 1.94466 32.1606C1.66767 32.4376 1.51206 32.8133 1.51206 33.205C1.51206 33.5967 1.66767 33.9724 1.94466 34.2494C2.22166 34.5264 2.59734 34.682 2.98907 34.682C3.18303 34.682 3.37509 34.6438 3.55429 34.5696C3.73349 34.4953 3.89632 34.3866 4.03347 34.2494C4.17062 34.1122 4.27942 33.9494 4.35364 33.7702C4.42787 33.591 4.46607 33.399 4.46607 33.205Z" fill="#FE4035" fill-opacity="0.17"/>
<path d="M82.9404 13.9561C82.9404 15.133 82.4728 16.2617 81.6406 17.0939C80.8084 17.9261 79.6797 18.3936 78.5028 18.3936C77.9201 18.3936 77.3431 18.2788 76.8047 18.0558C76.2663 17.8328 75.7771 17.5059 75.365 17.0939C74.953 16.6818 74.6261 16.1926 74.4031 15.6543C74.1801 15.1159 74.0653 14.5388 74.0653 13.9561C74.0653 13.3733 74.1801 12.7963 74.4031 12.2579C74.6261 11.7195 74.953 11.2303 75.365 10.8183C75.7771 10.4062 76.2663 10.0793 76.8047 9.85634C77.3431 9.63334 77.9201 9.51855 78.5028 9.51855C79.6797 9.51855 80.8084 9.98608 81.6406 10.8183C82.4728 11.6505 82.9404 12.7792 82.9404 13.9561ZM79.9755 13.9561C79.9755 13.5649 79.8201 13.1898 79.5435 12.9132C79.2669 12.6366 78.8918 12.4812 78.5007 12.4812C78.1095 12.4812 77.7344 12.6366 77.4578 12.9132C77.1812 13.1898 77.0258 13.5649 77.0258 13.9561C77.0258 14.3472 77.1812 14.7224 77.4578 14.999C77.7344 15.2755 78.1095 15.4309 78.5007 15.4309C78.8918 15.4309 79.2669 15.2755 79.5435 14.999C79.8201 14.7224 79.9755 14.3472 79.9755 13.9561Z" fill="#FE4035"/>
<path d="M61.6766 22.7832C65.1801 22.7818 68.6893 22.8049 72.2043 22.8527C73.1717 22.8657 74.0609 23.2105 74.0609 24.2668C74.0638 25.73 74.0652 27.194 74.0652 28.6587C74.0652 29.9405 73.1847 30.2399 72.0265 30.2333C71.2616 30.2305 70.4967 30.2319 69.7318 30.2377C69.6552 30.2391 69.6169 30.2782 69.6169 30.3548C69.6198 48.2076 69.6335 66.0596 69.6581 83.9109C69.6602 86.1839 67.9685 88.0015 65.6695 87.9993C50.2603 87.9877 34.8519 87.9827 19.4442 87.9841C18.4913 87.9841 17.7655 87.8872 17.2666 87.6935C16.1909 87.2742 15.4679 86.5367 15.0977 85.4812C14.9127 84.9549 14.8216 83.9905 14.8245 82.5879C14.8404 75.3135 14.8433 68.0629 14.8331 60.8362L14.8353 30.2919C14.8353 30.2764 14.8289 30.2615 14.8175 30.2505C14.8061 30.2395 14.7907 30.2333 14.7746 30.2333C13.9171 30.2348 13.0554 30.2334 12.1893 30.229C11.0116 30.2247 10.4086 29.7584 10.4021 28.5785C10.3934 27.2974 10.3927 26.017 10.3999 24.7374C10.4065 23.7245 10.7209 22.8743 11.8271 22.8505C15.1483 22.7811 20.5467 22.7652 28.0221 22.8028C28.0987 22.8028 28.1378 22.7652 28.1392 22.69C28.1623 21.5087 28.184 20.336 28.2043 19.1721C28.2433 16.7444 29.2331 14.877 31.1735 13.5698C32.7958 12.4767 34.1926 12.4919 36.4417 12.4897C40.5626 12.4854 44.6841 12.4869 48.8065 12.4941C50.0933 12.4955 51.0585 12.5982 51.7019 12.8021C54.3501 13.6458 56.3195 16.32 56.2934 19.0615C56.2819 20.263 56.2826 21.4653 56.2956 22.6683C56.2971 22.7464 56.3361 22.7854 56.4127 22.7854L61.6766 22.7832ZM31.2169 22.7616H53.2483C53.2765 22.7616 53.3035 22.7504 53.3235 22.7304C53.3434 22.7105 53.3546 22.6835 53.3546 22.6553V19.2805C53.3546 18.2537 52.9378 17.269 52.1959 16.543C51.454 15.8169 50.4478 15.4091 49.3986 15.4091H35.0666C34.0174 15.4091 33.0112 15.8169 32.2693 16.543C31.5274 17.269 31.1106 18.2537 31.1106 19.2805V22.6553C31.1106 22.6835 31.1218 22.7105 31.1417 22.7304C31.1616 22.7504 31.1887 22.7616 31.2169 22.7616ZM71.0982 25.8913C71.0982 25.8654 71.0879 25.8405 71.0696 25.8222C71.0513 25.8039 71.0265 25.7937 71.0006 25.7937H13.4472C13.4213 25.7937 13.3965 25.8039 13.3782 25.8222C13.3599 25.8405 13.3496 25.8654 13.3496 25.8913V27.1969C13.3496 27.2228 13.3599 27.2476 13.3782 27.2659C13.3965 27.2842 13.4213 27.2945 13.4472 27.2945H71.0006C71.0265 27.2945 71.0513 27.2842 71.0696 27.2659C71.0879 27.2476 71.0982 27.2228 71.0982 27.1969V25.8913ZM66.5631 84.5356C66.6224 84.4315 66.652 84.3194 66.652 84.1994V30.344C66.652 30.2702 66.6151 30.2333 66.5414 30.2333H17.8999C17.8291 30.2333 17.7937 30.2688 17.7937 30.3396V84.1756C17.7937 84.4016 17.8837 84.6184 18.0439 84.7783C18.2042 84.9381 18.4216 85.0279 18.6482 85.0279C34.4 85.0265 50.1006 85.0207 65.7497 85.0106C66.1083 85.0106 66.3794 84.8522 66.5631 84.5356Z" fill="#001219"/>
<path d="M31.217 22.7617C31.1888 22.7617 31.1618 22.7505 31.1418 22.7306C31.1219 22.7106 31.1107 22.6836 31.1107 22.6554V19.2806C31.1107 18.2539 31.5275 17.2691 32.2694 16.5431C33.0113 15.8171 34.0175 15.4092 35.0668 15.4092H49.3987C50.4479 15.4092 51.4541 15.8171 52.196 16.5431C52.9379 17.2691 53.3547 18.2539 53.3547 19.2806V22.6554C53.3547 22.6836 53.3435 22.7106 53.3236 22.7306C53.3037 22.7505 53.2767 22.7617 53.2485 22.7617H31.217Z" fill="#FE4035"/>
<path d="M71.0006 25.7939H13.4472C13.3933 25.7939 13.3496 25.8376 13.3496 25.8915V27.1972C13.3496 27.2511 13.3933 27.2948 13.4472 27.2948H71.0006C71.0545 27.2948 71.0982 27.2511 71.0982 27.1972V25.8915C71.0982 25.8376 71.0545 25.7939 71.0006 25.7939Z" fill="#FE4035"/>
<path d="M66.5631 84.5356C66.3795 84.8523 66.1084 85.0106 65.7498 85.0106C50.1006 85.0207 34.4001 85.0265 18.6482 85.028C18.4216 85.028 18.2042 84.9382 18.044 84.7783C17.8837 84.6185 17.7937 84.4017 17.7937 84.1756V30.3397C17.7937 30.2688 17.8291 30.2334 17.9 30.2334H66.5414C66.6152 30.2334 66.6521 30.2703 66.6521 30.344V84.1995C66.6521 84.3195 66.6224 84.4315 66.5631 84.5356ZM32.5963 35.3758C32.5963 34.4112 32.2131 33.486 31.531 32.8039C30.8489 32.1218 29.9237 31.7386 28.9591 31.7386H28.842C27.8773 31.7386 26.9522 32.1218 26.2701 32.8039C25.588 33.486 25.2048 34.4112 25.2048 35.3758V79.8899C25.2048 80.8545 25.588 81.7797 26.2701 82.4618C26.9522 83.1439 27.8773 83.5271 28.842 83.5271H28.9591C29.9237 83.5271 30.8489 83.1439 31.531 82.4618C32.2131 81.7797 32.5963 80.8545 32.5963 79.8899V35.3758ZM45.9694 35.4018C45.9711 34.4349 45.5886 33.5069 44.906 32.822C44.2235 32.137 43.2968 31.7513 42.3299 31.7496L42.2127 31.7494C41.2458 31.7477 40.3178 32.1302 39.6329 32.8127C38.9479 33.4953 38.5622 34.4219 38.5605 35.3889L38.4829 79.8682C38.4812 80.8352 38.8637 81.7632 39.5462 82.4481C40.2288 83.133 41.1554 83.5188 42.1224 83.5205L42.2395 83.5207C43.2065 83.5224 44.1345 83.1399 44.8194 82.4573C45.5043 81.7748 45.8901 80.8481 45.8918 79.8812L45.9694 35.4018ZM59.2971 35.404C59.2988 34.4365 58.9161 33.5079 58.2332 32.8226C57.5502 32.1373 56.623 31.7513 55.6555 31.7496L55.5383 31.7494C54.5708 31.7477 53.6423 32.1304 52.9569 32.8134C52.2716 33.4963 51.8856 34.4235 51.8839 35.3911L51.8063 79.866C51.8046 80.8336 52.1874 81.7621 52.8703 82.4475C53.5532 83.1328 54.4805 83.5188 55.448 83.5205L55.5651 83.5207C56.5326 83.5224 57.4612 83.1396 58.1465 82.4567C58.8319 81.7737 59.2178 80.8465 59.2195 79.879L59.2971 35.404Z" fill="white"/>
<path d="M2.98909 34.6816C3.80482 34.6816 4.4661 34.0203 4.4661 33.2045C4.4661 32.3888 3.80482 31.7275 2.98909 31.7275C2.17336 31.7275 1.51208 32.3888 1.51208 33.2045C1.51208 34.0203 2.17336 34.6816 2.98909 34.6816Z" fill="#FE4035"/>
<path d="M32.5964 79.8905C32.5964 80.8552 32.2132 81.7803 31.5311 82.4624C30.849 83.1446 29.9238 83.5278 28.9592 83.5278H28.842C27.8774 83.5278 26.9523 83.1446 26.2701 82.4624C25.588 81.7803 25.2048 80.8552 25.2048 79.8905V35.3765C25.2048 34.4118 25.588 33.4867 26.2701 32.8046C26.9523 32.1225 27.8774 31.7393 28.842 31.7393H28.9592C29.9238 31.7393 30.849 32.1225 31.5311 32.8046C32.2132 33.4867 32.5964 34.4118 32.5964 35.3765V79.8905ZM29.638 35.4415C29.638 35.246 29.5603 35.0584 29.422 34.9201C29.2837 34.7818 29.0962 34.7041 28.9006 34.7041H28.8919C28.6964 34.7041 28.5088 34.7818 28.3705 34.9201C28.2322 35.0584 28.1545 35.246 28.1545 35.4415V79.8255C28.1545 80.0211 28.2322 80.2086 28.3705 80.3469C28.5088 80.4852 28.6964 80.5629 28.8919 80.5629H28.9006C29.0962 80.5629 29.2837 80.4852 29.422 80.3469C29.5603 80.2086 29.638 80.0211 29.638 79.8255V35.4415Z" fill="#001219"/>
<path d="M45.8918 79.8818C45.8901 80.8487 45.5044 81.7754 44.8194 82.4579C44.1345 83.1405 43.2065 83.523 42.2395 83.5213L42.1224 83.5211C41.1555 83.5194 40.2288 83.1336 39.5463 82.4487C38.8637 81.7638 38.4812 80.8358 38.4829 79.8688L38.5605 35.3895C38.5622 34.4226 38.948 33.4959 39.6329 32.8134C40.3178 32.1308 41.2458 31.7483 42.2128 31.75L42.3299 31.7502C43.2968 31.7519 44.2235 32.1376 44.9061 32.8226C45.5886 33.5075 45.9711 34.4355 45.9694 35.4025L45.8918 79.8818ZM42.9571 35.4285C42.9571 35.2346 42.8801 35.0487 42.743 34.9117C42.6059 34.7746 42.42 34.6976 42.2262 34.6976H42.2175C42.0236 34.6976 41.8377 34.7746 41.7007 34.9117C41.5636 35.0487 41.4866 35.2346 41.4866 35.4285V79.8471C41.4866 80.041 41.5636 80.2269 41.7007 80.364C41.8377 80.501 42.0236 80.5781 42.2175 80.5781H42.2262C42.42 80.5781 42.6059 80.501 42.743 80.364C42.8801 80.2269 42.9571 80.041 42.9571 79.8471V35.4285Z" fill="#001219"/>
<path d="M59.2195 79.8796C59.2178 80.8471 58.8318 81.7744 58.1465 82.4573C57.4612 83.1402 56.5326 83.523 55.5651 83.5213L55.448 83.5211C54.4804 83.5194 53.5532 83.1334 52.8703 82.4481C52.1873 81.7627 51.8046 80.8342 51.8063 79.8667L51.8839 35.3917C51.8856 34.4242 52.2716 33.4969 52.9569 32.814C53.6422 32.131 54.5708 31.7483 55.5383 31.75L55.6554 31.7502C56.623 31.7519 57.5502 32.1379 58.2331 32.8232C58.9161 33.5085 59.2988 34.4371 59.2971 35.4046L59.2195 79.8796ZM56.2891 35.4328C56.2891 35.239 56.2121 35.0531 56.075 34.916C55.938 34.7789 55.7521 34.7019 55.5582 34.7019H55.5495C55.3557 34.7019 55.1698 34.7789 55.0327 34.916C54.8956 35.0531 54.8186 35.239 54.8186 35.4328V79.8428C54.8186 79.9388 54.8375 80.0338 54.8743 80.1225C54.911 80.2112 54.9648 80.2918 55.0327 80.3596C55.1006 80.4275 55.1811 80.4814 55.2698 80.5181C55.3585 80.5548 55.4535 80.5737 55.5495 80.5737H55.5582C55.6542 80.5737 55.7492 80.5548 55.8379 80.5181C55.9266 80.4814 56.0072 80.4275 56.075 80.3596C56.1429 80.2918 56.1967 80.2112 56.2335 80.1225C56.2702 80.0338 56.2891 79.9388 56.2891 79.8428V35.4328Z" fill="#001219"/>
<path d="M28.9008 34.7041H28.8921C28.4848 34.7041 28.1547 35.0343 28.1547 35.4415V79.8255C28.1547 80.2327 28.4848 80.5629 28.8921 80.5629H28.9008C29.308 80.5629 29.6382 80.2327 29.6382 79.8255V35.4415C29.6382 35.0343 29.308 34.7041 28.9008 34.7041Z" fill="#FE4035"/>
<path d="M42.2262 34.6973H42.2175C41.8138 34.6973 41.4866 35.0245 41.4866 35.4282V79.8468C41.4866 80.2505 41.8138 80.5777 42.2175 80.5777H42.2262C42.6298 80.5777 42.9571 80.2505 42.9571 79.8468V35.4282C42.9571 35.0245 42.6298 34.6973 42.2262 34.6973Z" fill="#FE4035"/>
<path d="M55.5582 34.7021H55.5495C55.1458 34.7021 54.8186 35.0294 54.8186 35.4331V79.843C54.8186 80.2467 55.1458 80.5739 55.5495 80.5739H55.5582C55.9619 80.5739 56.2891 80.2467 56.2891 79.843V35.4331C56.2891 35.0294 55.9619 34.7021 55.5582 34.7021Z" fill="#FE4035"/>
</svg>
