<svg width="89" height="93" viewBox="0 0 89 93" fill="none" xmlns="http://www.w3.org/2000/svg">
<path d="M21.2376 4.37852C21.6074 4.83601 22.1716 5.26743 22.43 5.70596C23.179 6.98124 21.7781 8.60024 20.4364 8.00052C19.8344 7.7303 19.2252 6.96939 18.6918 6.45027C18.6333 6.39338 18.5741 6.39259 18.514 6.4479C17.535 7.34629 16.6746 8.79698 15.1125 7.73741C13.6807 6.22271 15.2452 5.12758 16.2526 4.12489C16.2906 4.08538 16.2906 4.04587 16.2526 4.00637C15.7146 3.46117 14.9205 2.82353 14.6502 2.18588C14.1596 1.02438 15.4159 -0.355207 16.6343 0.083321C17.2838 0.315622 17.9499 1.1429 18.4951 1.68098C18.5567 1.74261 18.6191 1.74341 18.6823 1.68335C19.1967 1.18794 19.7893 0.460218 20.3369 0.175767C21.4605 -0.409726 22.9278 0.709111 22.6077 1.96069C22.4181 2.69789 21.5648 3.3948 20.9816 3.95185C20.9216 4.01032 20.9137 4.07511 20.9579 4.14622C21.018 4.2442 21.1112 4.32163 21.2376 4.37852Z" fill="#FF5A54"/>
<path d="M56.4504 9.19765C28.0907 2.8141 2.33611 25.7147 5.05498 54.494C-2.1345 42.6656 -1.65094 27.4925 6.4796 16.2141C7.63637 16.0403 8.15944 15.3599 8.04882 14.1732C10.1048 11.7095 12.4594 9.56427 15.1127 7.73747C16.6748 8.79704 17.5352 7.34635 18.5142 6.44796C18.5743 6.39265 18.6335 6.39344 18.692 6.45033C19.2253 6.96945 19.8345 7.73036 20.4366 8.00058C21.7783 8.6003 23.1792 6.9813 22.4302 5.70602C22.1718 5.26749 21.6076 4.83607 21.2378 4.37858C33.1113 -0.577967 46.3358 1.31363 56.4504 9.19765Z" fill="#FF5A54" fill-opacity="0.17"/>
<path d="M56.4505 9.19746C82.4208 15.4862 96.4821 43.68 84.905 68.2422C79.6522 79.3832 69.3669 87.8456 57.401 90.9295C32.4405 97.3629 7.79762 79.9758 5.05505 54.4938C2.33618 25.7145 28.0908 2.81392 56.4505 9.19746ZM85.737 50.182C85.737 39.885 81.6465 30.0096 74.3654 22.7285C67.0843 15.4474 57.209 11.3569 46.9119 11.3569C36.6149 11.3569 26.7395 15.4474 19.4584 22.7285C12.1773 30.0096 8.08681 39.885 8.08681 50.182C8.08681 60.4791 12.1773 70.3544 19.4584 77.6355C26.7395 84.9166 36.6149 89.0071 46.9119 89.0071C57.209 89.0071 67.0843 84.9166 74.3654 77.6355C81.6465 70.3544 85.737 60.4791 85.737 50.182Z" fill="#001219"/>
<path d="M85.7371 50.182C85.7371 60.4791 81.6466 70.3544 74.3655 77.6355C67.0844 84.9167 57.2091 89.0072 46.912 89.0072C36.615 89.0072 26.7396 84.9167 19.4585 77.6355C12.1774 70.3544 8.08691 60.4791 8.08691 50.182C8.08691 39.885 12.1774 30.0097 19.4585 22.7285C26.7396 15.4474 36.615 11.3569 46.912 11.3569C57.2091 11.3569 67.0844 15.4474 74.3655 22.7285C81.6466 30.0097 85.7371 39.885 85.7371 50.182ZM80.8825 50.182C80.8825 41.1725 77.3035 32.532 70.9328 26.1613C64.5621 19.7906 55.9216 16.2116 46.912 16.2116C37.9025 16.2116 29.262 19.7906 22.8913 26.1613C16.5206 32.532 12.9415 41.1725 12.9415 50.182C12.9415 59.1916 16.5206 67.8321 22.8913 74.2028C29.262 80.5735 37.9025 84.1525 46.912 84.1525C51.3731 84.1525 55.7905 83.2739 59.912 81.5667C64.0335 79.8595 67.7783 77.3573 70.9328 74.2028C74.0872 71.0484 76.5895 67.3035 78.2967 63.182C80.0038 59.0605 80.8825 54.6431 80.8825 50.182Z" fill="#FF5A54"/>
<path d="M8.04875 14.173C8.15937 15.3598 7.6363 16.0401 6.47953 16.2139C4.94587 16.0622 4.17786 14.1919 5.45788 13.2983C6.4582 12.599 7.58652 13.0423 8.04875 14.173Z" fill="#FF5A54"/>
<path d="M80.8824 50.1822C80.8824 54.6432 80.0037 59.0606 78.2965 63.1821C76.5894 67.3036 74.0871 71.0485 70.9327 74.2029C67.7782 77.3574 64.0333 79.8596 59.9118 81.5668C55.7904 83.274 51.373 84.1526 46.9119 84.1526C37.9024 84.1526 29.2618 80.5736 22.8911 74.2029C16.5204 67.8322 12.9414 59.1917 12.9414 50.1822C12.9414 41.1726 16.5204 32.5321 22.8911 26.1614C29.2618 19.7907 37.9024 16.2117 46.9119 16.2117C55.9214 16.2117 64.562 19.7907 70.9327 26.1614C77.3034 32.5321 80.8824 41.1726 80.8824 50.1822ZM77.6491 50.1822C77.6491 46.1457 76.8541 42.1487 75.3094 38.4195C73.7647 34.6903 71.5006 31.3019 68.6464 28.4477C65.7922 25.5934 62.4037 23.3293 58.6745 21.7847C54.9453 20.24 50.9484 19.4449 46.9119 19.4449C38.7599 19.4449 30.9417 22.6833 25.1774 28.4477C19.413 34.212 16.1747 42.0301 16.1747 50.1822C16.1747 54.2186 16.9697 58.2156 18.5144 61.9448C20.0591 65.674 22.3232 69.0625 25.1774 71.9167C30.9417 77.681 38.7599 80.9194 46.9119 80.9194C50.9484 80.9194 54.9453 80.1244 58.6745 78.5797C62.4037 77.035 65.7922 74.7709 68.6464 71.9167C71.5006 69.0625 73.7647 65.674 75.3094 61.9448C76.8541 58.2156 77.6491 54.2186 77.6491 50.1822Z" fill="#001219"/>
<path d="M77.6483 50.1823C77.6483 54.2188 76.8533 58.2157 75.3086 61.9449C73.7639 65.6741 71.4998 69.0626 68.6456 71.9168C65.7914 74.771 62.4029 77.0351 58.6737 78.5798C54.9445 80.1245 50.9475 80.9195 46.9111 80.9195C38.759 80.9195 30.9409 77.6812 25.1766 71.9168C19.4122 66.1525 16.1738 58.3343 16.1738 50.1823C16.1738 42.0303 19.4122 34.2121 25.1766 28.4478C30.9409 22.6834 38.759 19.4451 46.9111 19.4451C50.9475 19.4451 54.9445 20.2401 58.6737 21.7848C62.4029 23.3295 65.7914 25.5936 68.6456 28.4478C71.4998 31.302 73.7639 34.6905 75.3086 38.4197C76.8533 42.1489 77.6483 46.1458 77.6483 50.1823ZM76.0293 50.1823C76.0293 42.4597 72.9615 35.0533 67.5008 29.5926C62.04 24.1319 54.6337 21.0641 46.9111 21.0641C39.1884 21.0641 31.7821 24.1319 26.3214 29.5926C20.8606 35.0533 17.7928 42.4597 17.7928 50.1823C17.7928 57.9049 20.8606 65.3113 26.3214 70.772C31.7821 76.2327 39.1884 79.3005 46.9111 79.3005C54.6337 79.3005 62.04 76.2327 67.5008 70.772C72.9615 65.3113 76.0293 57.9049 76.0293 50.1823Z" fill="#FF5A54"/>
<path d="M46.7552 56.7555C44.6455 58.8383 42.5532 60.9369 40.4783 63.0513C39.5135 64.035 38.5891 63.7458 37.6788 62.8332C36.2866 61.441 34.8936 60.0519 33.4998 58.666C32.4023 57.5709 33.1181 56.6417 34.0379 55.7243C36.0085 53.7585 37.9743 51.7926 39.9355 49.8267C39.9475 49.8143 39.9542 49.7978 39.9542 49.7805C39.9542 49.7632 39.9475 49.7467 39.9355 49.7343C37.7989 47.593 35.6561 45.4509 33.5069 43.3081C32.7326 42.5369 32.7507 41.7341 33.5614 40.8997C34.9236 39.498 36.2961 38.105 37.6788 36.7207C38.4658 35.9313 39.459 35.5165 40.3195 36.377C42.4813 38.5388 44.6392 40.6974 46.7931 42.8529C46.8012 42.8607 46.8107 42.8669 46.8212 42.871C46.8316 42.8751 46.8428 42.8771 46.854 42.8769C46.8653 42.8766 46.8763 42.8742 46.8866 42.8697C46.8969 42.8652 46.9062 42.8587 46.914 42.8506C48.962 40.7994 51.0156 38.7474 53.0747 36.6946C54.0395 35.7346 54.862 35.5686 55.8505 36.55C57.268 37.958 58.6815 39.3692 60.0912 40.7836C60.9445 41.6401 60.9413 42.5013 60.0817 43.3673C57.991 45.4754 55.9034 47.5883 53.819 49.7058C53.7637 49.7627 53.7637 49.8196 53.819 49.8765C55.9603 52.0241 58.0976 54.1598 60.231 56.2837C61.2432 57.2912 60.6269 58.2441 59.7569 59.114C58.5354 60.334 57.3138 61.554 56.0923 62.774C55.1702 63.696 54.2955 64.0872 53.2762 63.0655C51.176 60.9511 49.0647 58.8478 46.9424 56.7555C46.8808 56.6938 46.8184 56.6938 46.7552 56.7555ZM43.3418 48.523C44.1003 49.272 44.0434 50.3198 43.2991 51.0593C41.1894 53.1548 39.0813 55.2566 36.9748 57.3647C36.9069 57.431 36.9069 57.4974 36.9748 57.5638L39.075 59.6616C39.1319 59.7185 39.1888 59.7185 39.2457 59.6616C41.3933 57.5314 43.5338 55.3933 45.6671 53.2472C46.6201 52.2872 47.5635 52.7803 48.4121 53.6312C50.4364 55.6603 52.4576 57.6807 54.4756 59.6924C54.4928 59.7089 54.5158 59.7181 54.5396 59.7181C54.5635 59.7181 54.5864 59.7089 54.6036 59.6924L56.7678 57.5258C56.7848 57.5088 56.7942 57.4857 56.7942 57.4613C56.7942 57.437 56.7848 57.4134 56.7678 57.3955C54.7245 55.3553 52.6749 53.3057 50.619 51.2466C49.8438 50.4691 49.4006 49.5162 50.261 48.6557C52.4371 46.4828 54.6076 44.3131 56.7726 42.1466C56.7872 42.1313 56.7954 42.111 56.7954 42.0902C56.7954 42.0693 56.7872 42.0496 56.7726 42.0352L54.6344 39.8994C54.5712 39.8362 54.508 39.8362 54.4448 39.8994C52.3035 42.0312 50.1678 44.1685 48.0376 46.3114C46.9898 47.3639 46.0393 46.6764 45.1551 45.7875C43.1972 43.8248 41.2337 41.8621 39.2646 39.8994C39.2014 39.8362 39.1382 39.8362 39.075 39.8994L36.9345 42.0328C36.9261 42.0412 36.9193 42.0511 36.9148 42.0621C36.9102 42.0731 36.9078 42.0849 36.9078 42.0968C36.9078 42.1087 36.9102 42.1205 36.9148 42.1315C36.9193 42.1424 36.9261 42.1524 36.9345 42.1608C39.0632 44.2831 41.1989 46.4038 43.3418 48.523Z" fill="#001219"/>
<path d="M43.2995 51.0594C44.0438 50.3198 44.1007 49.2721 43.3421 48.523C41.1993 46.4039 39.0635 44.2832 36.9349 42.1608C36.9264 42.1525 36.9197 42.1425 36.9151 42.1315C36.9106 42.1205 36.9082 42.1087 36.9082 42.0968C36.9082 42.0849 36.9106 42.0732 36.9151 42.0622C36.9197 42.0512 36.9264 42.0412 36.9349 42.0328L39.0754 39.8995C39.1386 39.8362 39.2018 39.8362 39.265 39.8995C41.234 41.8622 43.1975 43.8249 45.1555 45.7876C46.0397 46.6765 46.9902 47.3639 48.0379 46.3115C50.1682 44.1686 52.3039 42.0313 54.4452 39.8995C54.5084 39.8362 54.5716 39.8362 54.6348 39.8995L56.7729 42.0352C56.7876 42.0496 56.7958 42.0694 56.7958 42.0902C56.7958 42.1111 56.7876 42.1313 56.7729 42.1466C54.608 44.3132 52.4374 46.4829 50.2614 48.6558C49.4009 49.5163 49.8442 50.4692 50.6193 51.2467C52.6753 53.3058 54.7249 55.3554 56.7682 57.3955C56.7851 57.4134 56.7946 57.437 56.7946 57.4614C56.7946 57.4857 56.7851 57.5089 56.7682 57.5259L54.604 59.6925C54.5868 59.709 54.5639 59.7182 54.54 59.7182C54.5162 59.7182 54.4932 59.709 54.476 59.6925C52.458 57.6808 50.4368 55.6604 48.4125 53.6313C47.5639 52.7803 46.6204 52.2873 45.6675 53.2473C43.5341 55.3933 41.3937 57.5314 39.2461 59.6616C39.1892 59.7185 39.1323 59.7185 39.0754 59.6616L36.9752 57.5638C36.9072 57.4975 36.9072 57.4311 36.9752 57.3647C39.0817 55.2566 41.1898 53.1549 43.2995 51.0594Z" fill="#FF5A54"/>
</svg>
