<svg xmlns="http://www.w3.org/2000/svg" version="1.1" xmlns:xlink="http://www.w3.org/1999/xlink" width="512" height="512" x="0" y="0" viewBox="0 0 512 512" style="enable-background:new 0 0 512 512" xml:space="preserve" class=""><g><circle cx="256" cy="256" r="248.5" style="" fill="#46cc8d" data-original="#46cc8d"></circle><path d="M301.56 11.682c76.53 38.103 129.12 117.104 129.12 208.399 0 128.503-104.173 232.676-232.676 232.676-52.755 0-101.402-17.568-140.431-47.158 45.359 60.07 117.355 98.9 198.428 98.9 137.243 0 248.5-111.257 248.5-248.5-.001-121.678-87.46-222.916-202.941-244.317z" style="" fill="#00c27a" data-original="#00c27a"></path><circle cx="256" cy="256" r="213.191" style="" fill="#b9eacf" data-original="#b9eacf"></circle><circle cx="256" cy="256" r="166.07" style="" fill="#f3f0f3" data-original="#f3f0f3"></circle><circle cx="257.055" cy="253.939" r="166.07" style="" fill="#f3f0f3" data-original="#f3f0f3"></circle><path d="M392.334 92.104c24.229 36.717 38.346 80.695 38.346 127.978 0 128.503-104.173 232.676-232.676 232.676-9.525 0-18.912-.586-28.136-1.698 26.341 11.649 55.478 18.131 86.133 18.131 117.742 0 213.191-95.449 213.191-213.191-.001-65.889-29.898-124.79-76.858-163.896z" style="" fill="#91deb6" data-original="#91deb6"></path><path d="m215.67 335.473-54.748-54.747c-5.158-5.158-5.158-13.522 0-18.68l13.799-13.798c5.158-5.158 13.522-5.158 18.68 0l22.269 22.269c5.158 5.158 13.522 5.158 18.68 0l89.118-89.119c5.158-5.158 13.521-5.158 18.68 0l13.799 13.798c5.158 5.158 5.159 13.522 0 18.68L234.35 335.473c-5.158 5.158-13.521 5.158-18.68 0z" style="" fill="#91deb6" data-original="#91deb6"></path><circle cx="256" cy="256" r="248.5" style="stroke-width:15;stroke-linecap:round;stroke-linejoin:round;stroke-miterlimit:10;" fill="none" stroke="#000000" stroke-width="15" stroke-linecap="round" stroke-linejoin="round" stroke-miterlimit="10" data-original="#000000" class=""></circle><path d="M399.169 413.967c-37.84 34.316-88.063 55.224-143.169 55.224-117.742 0-213.191-95.449-213.191-213.191S138.258 42.809 256 42.809 469.191 138.258 469.191 256c0 50.623-17.644 97.125-47.118 133.692" style="stroke-width:15;stroke-linecap:round;stroke-linejoin:round;stroke-miterlimit:10;" fill="none" stroke="#000000" stroke-width="15" stroke-linecap="round" stroke-linejoin="round" stroke-miterlimit="10" data-original="#000000" class=""></path><path d="M153.137 125.613C181.423 103.268 217.154 89.93 256 89.93c91.718 0 166.07 74.352 166.07 166.07S347.718 422.07 256 422.07 89.93 347.718 89.93 256c0-40.127 14.231-76.929 37.922-105.636" style="stroke-width:15;stroke-linecap:round;stroke-linejoin:round;stroke-miterlimit:10;" fill="none" stroke="#000000" stroke-width="15" stroke-linecap="round" stroke-linejoin="round" stroke-miterlimit="10" data-original="#000000" class=""></path><path d="m215.67 335.473-54.748-54.747c-5.158-5.158-5.158-13.522 0-18.68l13.799-13.798c5.158-5.158 13.522-5.158 18.68 0l22.269 22.269c5.158 5.158 13.522 5.158 18.68 0l89.118-89.119c5.158-5.158 13.521-5.158 18.68 0l13.799 13.798c5.158 5.158 5.159 13.522 0 18.68L234.35 335.473c-5.158 5.158-13.521 5.158-18.68 0z" style="stroke-width:15;stroke-linecap:round;stroke-linejoin:round;stroke-miterlimit:10;" fill="none" stroke="#000000" stroke-width="15" stroke-linecap="round" stroke-linejoin="round" stroke-miterlimit="10" data-original="#000000" class=""></path></g></svg>