<svg xmlns="http://www.w3.org/2000/svg" version="1.1" xmlns:xlink="http://www.w3.org/1999/xlink" width="512" height="512" x="0" y="0" viewBox="0 0 60 60" style="enable-background:new 0 0 512 512" xml:space="preserve" class=""><g><path fill="#6366f1" d="M30.056 59.468a.5.5 0 0 1-.273-.92l10.117-6.56-12.584 7.266a.5.5 0 0 1-.677-.174.5.5 0 0 1 .16-.682l9.581-6.066-11.4 6.584a.5.5 0 0 1-.513-.858l4.3-2.656L23.3 58.56a.5.5 0 0 1-.514-.858l8.411-5.218-9.661 5.578a.5.5 0 0 1-.516-.856l15.277-9.617-16.852 9.725a.5.5 0 0 1-.515-.856l16.286-10.2L17.53 56.463a.5.5 0 0 1-.513-.858l14.22-8.805-20.178 11.647a.5.5 0 0 1-.508-.86l2.836-1.71L7.286 59.4a.5.5 0 0 1-.51-.859l15.435-9.4-16.318 9.418a.5.5 0 0 1-.51-.861L20.188 48.7l-14.3 8.255a.5.5 0 0 1-.51-.859l15.478-9.415L6.62 54.9a.5.5 0 0 1-.511-.859l18.145-11.1-17.025 9.832a.5.5 0 0 1-.514-.857L31.177 36.71 7.788 50.213a.5.5 0 0 1-.513-.859l20.49-12.647L7.523 48.393a.5.5 0 0 1-.508-.861l9.393-5.7L6.771 47.4a.5.5 0 0 1-.511-.858l18.39-11.308L5.869 46.077a.5.5 0 0 1-.509-.86l8.3-5.025-8.42 4.861a.5.5 0 0 1-.514-.858l23.838-14.848-24.25 14a.5.5 0 0 1-.509-.86l13.405-8.171L3.729 42.1a.5.5 0 0 1-.507-.861l4.157-2.507-4.071 2.35a.5.5 0 0 1-.515-.857l22.753-14.162L2.658 39.277a.5.5 0 0 1-.512-.858l19.175-11.843-19.139 11.05a.5.5 0 0 1-.512-.858l15.354-9.422-15.183 8.765a.5.5 0 0 1-.514-.857L20.781 23.18 1.543 34.286a.5.5 0 0 1-.514-.857L19.986 21.64 1.354 32.4a.5.5 0 0 1-.51-.859l6.284-3.821L1.3 31.082a.5.5 0 0 1-.513-.857l14.552-9-14.031 8.1a.5.5 0 0 1-.51-.859l4.279-2.606-3.688 2.13a.5.5 0 0 1-.512-.858l7.826-4.8-7.151 4.121a.5.5 0 0 1-.519-.854l18.241-11.644-17.258 9.964a.5.5 0 0 1-.512-.858l2.989-1.833L2.4 22.434a.5.5 0 0 1-.52-.854l14.42-9.26-13.013 7.511a.5.5 0 0 1-.514-.857l2.9-1.8-1.653.954a.5.5 0 0 1-.514-.857l1.283-.8a.5.5 0 0 1-.423-.9L8.8 12.742l-2.57 1.484a.5.5 0 0 1-.53-.847l6.37-4.316-3.258 1.88a.5.5 0 0 1-.537-.841l3.807-2.672a.5.5 0 0 1 .035-.844l6.591-3.806a.5.5 0 0 1 .537.842l-1.152.809 5.492-3.17a.5.5 0 0 1 .53.846l-6.366 4.315L27.7.678a.5.5 0 0 1 .52.854l-4.443 2.835 6.51-3.758a.5.5 0 0 1 .514.858l-.992.617L32.2.7a.5.5 0 0 1 .514.858l-2.893 1.8L34.045.919a.5.5 0 0 1 .52.853l-14.419 9.263 16.6-9.581a.5.5 0 0 1 .512.859l-2.975 1.822 3.939-2.274a.5.5 0 0 1 .518.855L20.492 14.363 40.653 2.725a.5.5 0 0 1 .512.858l-7.8 4.784 8.7-5.023a.5.5 0 0 1 .51.859l-4.282 2.609 4.972-2.871a.5.5 0 0 1 .512.858l-14.559 9.009 15.586-9a.5.5 0 0 1 .509.859l-6.285 3.824 6.881-3.972a.5.5 0 0 1 .514.857L27.474 18.161 47.442 6.632a.5.5 0 0 1 .514.857l-19.45 12.073 20.36-11.755a.5.5 0 0 1 .512.858L34 18.1l16.006-9.239a.5.5 0 0 1 .513.859L31.342 21.563 51.2 10.1a.5.5 0 0 1 .515.857L28.972 25.109l23.466-13.547a.5.5 0 0 1 .508.86l-4.185 2.524 4.349-2.51a.5.5 0 0 1 .51.859l-13.376 8.153L53.9 13.564a.5.5 0 0 1 .515.858L30.564 29.278 54.916 15.22a.5.5 0 0 1 .509.86l-8.291 5.02 8.355-4.824a.5.5 0 0 1 .512.859L37.633 28.427l18.552-10.711a.5.5 0 0 1 .508.86l-9.447 5.729 9.425-5.441a.5.5 0 0 1 .513.859L36.694 32.37l20.57-11.87a.5.5 0 0 1 .513.858l-24.462 15.2 24.512-14.151a.5.5 0 0 1 .511.86L40.2 34.365l17.978-10.382a.5.5 0 0 1 .51.86l-15.467 9.408 15.206-8.778a.5.5 0 0 1 .51.86L44.144 35.32 58.6 26.975a.5.5 0 0 1 .509.859l-15.427 9.4 15.013-8.668a.5.5 0 0 1 .508.861l-2.828 1.705 2.341-1.351a.5.5 0 0 1 .514.858l-14.224 8.81 13.64-7.875a.5.5 0 0 1 .515.857L42.863 42.64l15.569-8.988a.5.5 0 0 1 .516.856l-15.272 9.614 14.361-8.291a.5.5 0 0 1 .514.857L50.15 41.9l7.434-4.292a.5.5 0 0 1 .513.859L53.8 41.12l3.262-1.883a.5.5 0 0 1 .517.856l-9.593 6.074 8.191-4.729a.5.5 0 0 1 .522.853l-10.114 6.557 8.224-4.748a.5.5 0 0 1 .527.848l-8.417 5.616 5.8-3.347a.5.5 0 0 1 .529.847l-3.242 2.183.065-.037a.5.5 0 1 1 .5.865L37.96 58.356a.5.5 0 0 1-.529-.847l3.246-2.186-6.619 3.822a.5.5 0 0 1-.528-.849l8.419-5.618L30.306 59.4a.5.5 0 0 1-.25.068z" opacity="1" data-original="#36a5f7" class=""></path><path fill="#ffffff" d="M26.869 48.47a.5.5 0 0 1-.327-.879l3.1-2.672-5.842 3.37a.5.5 0 0 1-.556-.828L27.729 44l-4.449 2.571a.5.5 0 0 1-.555-.828l5.089-3.943-1.534.885a.5.5 0 0 1-.566-.819l3.169-2.592-2.6 1.5a.5.5 0 0 1-.564-.821l2.994-2.425-2.43 1.4a.5.5 0 0 1-.555-.829l2.065-1.6-1.51.871a.5.5 0 0 1-.544-.837l.429-.313a.5.5 0 0 1-.445-.873l2.609-2.069-2.052 1.197a.5.5 0 0 1-.575-.813l3.817-3.262-3.242 1.87a.5.5 0 0 1-.565-.821l3.1-2.521-2.535 1.461a.5.5 0 0 1-.551-.832l1.43-1.078-.879.506a.5.5 0 0 1-.574-.812l2.327-1.988-2.25 1.3a.5.5 0 0 1-.607-.782l1.383-1.411-2.432 1.4a.5.5 0 0 1-.648-.734l.953-1.257-1.152.664a.5.5 0 0 1-.672-.7l.314-.491a.5.5 0 0 1-.089-.906l1.161-.67a.5.5 0 0 1 .672.7l-.114.179 1.524-.88a.5.5 0 0 1 .649.734l-.954 1.258 3.453-1.989a.5.5 0 0 1 .607.782l-1.382 1.41 3.8-2.192a.5.5 0 0 1 .574.812L30.5 25.4l3.221-1.859a.5.5 0 0 1 .551.832l-1.429 1.077.881-.508a.5.5 0 0 1 .565.821l-3.1 2.523 2.531-1.466a.5.5 0 0 1 .575.813L30.478 30.9l3.242-1.871a.5.5 0 0 1 .56.825l-2.61 2.069 2.05-1.183a.5.5 0 0 1 .544.837l-.429.313a.5.5 0 0 1 .44.877l-2.061 1.593 1.506-.869a.5.5 0 0 1 .564.822l-3 2.426 2.433-1.4a.5.5 0 0 1 .566.819l-3.169 2.592 2.6-1.5a.5.5 0 0 1 .555.828l-5.088 3.939 4.539-2.627a.5.5 0 0 1 .555.828l-4.485 3.459 3.93-2.269a.5.5 0 0 1 .577.812l-3.1 2.673 2.816-1.625a.5.5 0 0 1 .572.815l-.746.628 1.188-.686a.5.5 0 0 1 .633.755l-1.12 1.334 2.094-1.209a.5.5 0 0 1 .71.63l-.544 1.279a.509.509 0 0 1 .555.236.5.5 0 0 1-.183.682l-1.16.67a.5.5 0 0 1-.71-.63l.536-1.25-3.263 1.878a.5.5 0 0 1-.633-.755l1.122-1.334-3.618 2.089a.5.5 0 0 1-.572-.815l.746-.628-2.5 1.443a.49.49 0 0 1-.251.07zM30.676 18.406a.5.5 0 0 1-.358-.849l.693-.707-2.211 1.275a.5.5 0 0 1-.586-.8l1.8-1.635L27.4 17.2a.5.5 0 0 1-.592-.8l2.655-2.505-3 1.73a.5.5 0 0 1-.6-.786l2.294-2.3-1.782 1.029a.5.5 0 0 1-.595-.795l.92-.873a.507.507 0 0 1-.184-.184.5.5 0 0 1 .182-.683l2.377-1.372a.5.5 0 0 1 .595.8l-.148.142 1.412-.816a.5.5 0 0 1 .6.786l-2.3 2.3 3.43-1.979a.5.5 0 0 1 .593.8l-2.655 2.5 2.959-1.708a.5.5 0 0 1 .586.8l-1.8 1.636 1.32-.762a.5.5 0 0 1 .607.782l-1.089 1.113a.491.491 0 0 1 .3.23.5.5 0 0 1-.182.683l-2.376 1.372a.489.489 0 0 1-.251.066z" opacity="1" data-original="#ffffff" class=""></path><g fill="#262626"><path d="M5.972 53.31c-4.73 9.571 5.727 5.447 10.367 2.971C47.33 71.865 75.8 30.179 49.257 7.411 26.378-12.455-9.585 13.356 2.5 41.351c1.562 4.621 6.015 6.735 3.472 11.959zm1.573-.488c1.789-4.215.006-5.606-2.184-8.955C-14.126 4.293 48.217-17.8 57.874 25.355c4.1 20.878-18.464 39.676-38.171 31.11-1.364-.434-2.75-1.972-4.173-.933-4.807 1.91-12.216 6.494-7.985-2.71z" fill="#262626" opacity="1" data-original="#262626" class=""></path><path d="M23.077 44.466c-1.536 1.121-1.006 4.374 1.23 4.089 3.951-.66 10.414 1.507 13.339-1.142 1.344-4.266-3.7-2.234-2.91-6.152-.011-5.718.016-11.44 0-17.157-1.253-3.453-7.282-1.043-10.278-1.66-2.214-.222-2.985 2.919-1.467 4.145.846.519 2 .359 2.255 1.577-.007 4.983.167 10.1-.057 15.075-.333.881-1.417.792-2.112 1.225zm3.659-9.139c-.462-3.2 1.736-8.641-2.578-9.585a1.776 1.776 0 0 1-.422-1.79c1.132-1 3.52-.11 5.074-.4 1.364.2 4.742-1.026 4.454 1.285.831 4.812-1.935 17.426 1.536 20.073 1.769-.043 2.271 3.066.225 2.533H24.573c-1.152.306-1.168-2-.322-2.293 4.242-1.089 2.027-6.617 2.485-9.823zM30.865 18.3c4.435-.66 5.294-7.2.811-8.5-7.465-2.083-8.838 9.8-.811 8.5zm-3.626-6.33c1.731-3.091 6.169-.991 6.032 2.173-.218 6.17-8.904 2.684-6.032-2.173z" fill="#262626" opacity="1" data-original="#262626" class=""></path></g></g></svg>