<svg width="88" height="92" viewBox="0 0 88 92" fill="none" xmlns="http://www.w3.org/2000/svg">
<path d="M20.9993 4.32933C21.3649 4.78168 21.9227 5.20825 22.1782 5.64185C22.9188 6.9028 21.5336 8.50361 20.2071 7.91063C19.6117 7.64344 19.0094 6.89108 18.482 6.37779C18.4242 6.32154 18.3656 6.32076 18.3063 6.37545C17.3383 7.26375 16.4875 8.69814 14.9429 7.65047C13.5273 6.15279 15.0742 5.06996 16.0703 4.07854C16.1078 4.03948 16.1078 4.00041 16.0703 3.96135C15.5382 3.42228 14.7531 2.7918 14.4859 2.16132C14.0007 1.01287 15.2429 -0.351216 16.4476 0.0823848C17.0898 0.312076 17.7484 1.13006 18.2875 1.6621C18.3484 1.72303 18.4102 1.72382 18.4727 1.66444C18.9813 1.17459 19.5672 0.455047 20.1086 0.173792C21.2196 -0.405123 22.6704 0.701144 22.354 1.93866C22.1665 2.66758 21.3227 3.35665 20.7461 3.90744C20.6868 3.96526 20.6789 4.02932 20.7227 4.09963C20.7821 4.19651 20.8743 4.27308 20.9993 4.32933Z" fill="#FF9500"/>
<path d="M55.8162 9.09424C27.7751 2.78242 2.30986 25.4257 4.99818 53.8816C-2.11052 42.1862 -1.63239 27.1836 6.4068 16.0318C7.55056 15.86 8.06776 15.1873 7.95838 14.0138C9.99123 11.5779 12.3194 9.45675 14.9429 7.65047C16.4874 8.69814 17.3382 7.26374 18.3062 6.37545C18.3656 6.32076 18.4242 6.32154 18.482 6.37779C19.0093 6.89108 19.6117 7.64344 20.207 7.91063C21.5336 8.50361 22.9188 6.9028 22.1781 5.64184C21.9227 5.20824 21.3648 4.78167 20.9992 4.32932C32.7392 -0.571534 45.8152 1.29881 55.8162 9.09424Z" fill="#FF9500" fill-opacity="0.17"/>
<path d="M55.8161 9.0943C81.4946 15.3124 95.398 43.1894 83.9509 67.4757C78.7571 78.4915 68.5874 86.8588 56.756 89.9081C32.0759 96.2691 7.7099 79.0774 4.99814 53.8817C2.30982 25.4258 27.7751 2.78249 55.8161 9.0943ZM84.7736 49.6184C84.7736 39.437 80.729 29.6726 73.5297 22.4733C66.3304 15.274 56.5661 11.2295 46.3847 11.2295C36.2033 11.2295 26.439 15.274 19.2397 22.4733C12.0404 29.6726 7.99584 39.437 7.99584 49.6184C7.99584 59.7997 12.0404 69.5641 19.2397 76.7634C26.439 83.9627 36.2033 88.0072 46.3847 88.0072C56.5661 88.0072 66.3304 83.9627 73.5297 76.7634C80.729 69.5641 84.7736 59.7997 84.7736 49.6184Z" fill="#001219"/>
<path d="M84.7738 49.6184C84.7738 59.7997 80.7293 69.5641 73.53 76.7634C66.3307 83.9627 56.5663 88.0072 46.385 88.0072C36.2036 88.0072 26.4392 83.9627 19.2399 76.7634C12.0406 69.5641 7.99609 59.7997 7.99609 49.6184C7.99609 39.437 12.0406 29.6726 19.2399 22.4733C26.4392 15.274 36.2036 11.2295 46.385 11.2295C56.5663 11.2295 66.3307 15.274 73.53 22.4733C80.7293 29.6726 84.7738 39.437 84.7738 49.6184ZM79.9738 49.6184C79.9738 40.7101 76.435 32.1666 70.1358 25.8675C63.8367 19.5684 55.2933 16.0296 46.385 16.0296C37.4767 16.0296 28.9332 19.5684 22.6341 25.8675C16.335 32.1666 12.7962 40.7101 12.7962 49.6184C12.7962 58.5267 16.335 67.0701 22.6341 73.3692C28.9332 79.6684 37.4767 83.2072 46.385 83.2072C50.7959 83.2072 55.1637 82.3384 59.2388 80.6504C63.314 78.9624 67.0168 76.4882 70.1358 73.3692C73.2548 70.2502 75.729 66.5474 77.417 62.4722C79.105 58.3971 79.9738 54.0293 79.9738 49.6184Z" fill="#FF9500"/>
<path d="M7.95867 14.0139C8.06805 15.1873 7.55085 15.86 6.40708 16.0319C4.89065 15.8819 4.13127 14.0326 5.39691 13.149C6.38599 12.4576 7.50163 12.8959 7.95867 14.0139Z" fill="#FF9500"/>
<path d="M79.9735 49.6183C79.9735 54.0293 79.1047 58.397 77.4167 62.4722C75.7287 66.5474 73.2546 70.2502 70.1356 73.3692C67.0166 76.4882 63.3138 78.9623 59.2386 80.6503C55.1634 82.3383 50.7956 83.2071 46.3847 83.2071C37.4764 83.2071 28.933 79.6683 22.6338 73.3692C16.3347 67.0701 12.7959 58.5266 12.7959 49.6183C12.7959 40.71 16.3347 32.1666 22.6338 25.8675C28.933 19.5684 37.4764 16.0295 46.3847 16.0295C55.293 16.0295 63.8364 19.5684 70.1356 25.8675C76.4347 32.1666 79.9735 40.71 79.9735 49.6183ZM76.7766 49.6183C76.7766 45.6272 75.9905 41.6752 74.4631 37.9879C72.9358 34.3006 70.6971 30.9502 67.875 28.128C65.0529 25.3059 61.7025 23.0672 58.0152 21.5399C54.3279 20.0126 50.3758 19.2265 46.3847 19.2265C38.3243 19.2265 30.594 22.4285 24.8944 28.128C19.1948 33.8276 15.9928 41.5579 15.9928 49.6183C15.9928 53.6095 16.7789 57.5615 18.3063 61.2488C19.8336 64.9361 22.0723 68.2865 24.8944 71.1086C30.594 76.8082 38.3243 80.0102 46.3847 80.0102C50.3758 80.0102 54.3279 79.2241 58.0152 77.6968C61.7025 76.1694 65.0529 73.9308 67.875 71.1086C70.6971 68.2865 72.9358 64.9361 74.4631 61.2488C75.9905 57.5615 76.7766 53.6095 76.7766 49.6183Z" fill="#001219"/>
<path d="M76.7764 49.6184C76.7764 53.6096 75.9903 57.5616 74.463 61.2489C72.9356 64.9362 70.697 68.2866 67.8749 71.1087C65.0527 73.9309 61.7023 76.1695 58.015 77.6969C54.3277 79.2242 50.3757 80.0103 46.3845 80.0103C38.3241 80.0103 30.5938 76.8083 24.8942 71.1087C19.1947 65.4092 15.9927 57.6789 15.9927 49.6184C15.9927 41.558 19.1947 33.8277 24.8942 28.1281C30.5938 22.4286 38.3241 19.2266 46.3845 19.2266C50.3757 19.2266 54.3277 20.0127 58.015 21.54C61.7023 23.0673 65.0527 25.306 67.8749 28.1281C70.697 30.9503 72.9356 34.3007 74.463 37.988C75.9903 41.6753 76.7764 45.6273 76.7764 49.6184ZM75.1756 49.6184C75.1756 41.9826 72.1423 34.6595 66.7429 29.2601C61.3435 23.8607 54.0204 20.8274 46.3845 20.8274C38.7487 20.8274 31.4256 23.8607 26.0262 29.2601C20.6268 34.6595 17.5935 41.9826 17.5935 49.6184C17.5935 57.2543 20.6268 64.5774 26.0262 69.9768C31.4256 75.3762 38.7487 78.4095 46.3845 78.4095C54.0204 78.4095 61.3435 75.3762 66.7429 69.9768C72.1423 64.5774 75.1756 57.2543 75.1756 49.6184Z" fill="#FF9500"/>
<path d="M51.8232 37.3198C51.8232 38.8259 51.2249 40.2703 50.1599 41.3352C49.095 42.4002 47.6506 42.9985 46.1445 42.9985C44.6384 42.9985 43.194 42.4002 42.1291 41.3352C41.0641 40.2703 40.4658 38.8259 40.4658 37.3198C40.4658 36.5741 40.6127 35.8356 40.8981 35.1467C41.1835 34.4577 41.6018 33.8317 42.1291 33.3044C42.6564 32.777 43.2824 32.3588 43.9714 32.0734C44.6603 31.788 45.3988 31.6411 46.1445 31.6411C46.8902 31.6411 47.6287 31.788 48.3176 32.0734C49.0066 32.3588 49.6326 32.777 50.1599 33.3044C50.6873 33.8317 51.1055 34.4577 51.3909 35.1467C51.6763 35.8356 51.8232 36.5741 51.8232 37.3198ZM49.1748 37.3198C49.1748 36.9219 49.0964 36.5278 48.9442 36.1602C48.7919 35.7925 48.5687 35.4584 48.2873 35.177C48.0059 34.8957 47.6718 34.6724 47.3042 34.5202C46.9365 34.3679 46.5425 34.2895 46.1445 34.2895C45.7466 34.2895 45.3525 34.3679 44.9849 34.5202C44.6172 34.6724 44.2831 34.8957 44.0018 35.177C43.7204 35.4584 43.4972 35.7925 43.3449 36.1602C43.1926 36.5278 43.1142 36.9219 43.1142 37.3198C43.1142 38.1235 43.4335 38.8943 44.0018 39.4626C44.5701 40.0309 45.3408 40.3501 46.1445 40.3501C46.9482 40.3501 47.719 40.0309 48.2873 39.4626C48.8556 38.8943 49.1748 38.1235 49.1748 37.3198Z" fill="#001219"/>
<path d="M46.1446 40.3502C47.8182 40.3502 49.1749 38.9935 49.1749 37.3199C49.1749 35.6463 47.8182 34.2896 46.1446 34.2896C44.471 34.2896 43.1143 35.6463 43.1143 37.3199C43.1143 38.9935 44.471 40.3502 46.1446 40.3502Z" fill="#FF9500"/>
<path d="M42.0691 53.811C40.668 53.7166 39.5972 53.1227 38.8566 52.0292C37.4451 49.9392 38.4262 46.969 40.7818 46.1334C41.2988 45.9512 42.2139 45.862 43.5271 45.8658C45.5861 45.8736 47.6438 45.8755 49.7002 45.8717C50.6269 45.8697 51.4431 46.1722 51.4431 47.192C51.4431 52.2173 51.4386 57.242 51.4296 62.266C51.4218 67.6054 44.1475 68.8947 42.4297 63.8849C42.263 63.3976 42.1797 62.7287 42.1797 61.8782C42.1809 59.2273 42.1803 56.577 42.1777 53.9273C42.1777 53.8549 42.1415 53.8161 42.0691 53.811ZM44.8319 62.3145C44.8338 63.784 46.2375 64.8601 47.6199 64.2183C48.5524 63.7821 48.7812 63.0473 48.7831 62.0042C48.7935 57.5438 48.7935 53.0813 48.7831 48.617C48.7831 48.5485 48.7495 48.5142 48.6823 48.5142C46.582 48.509 44.4823 48.5097 42.3832 48.5162C40.8109 48.52 40.2157 50.3774 41.6407 51.0327C42.7671 51.5503 44.8125 50.4336 44.8145 52.6787C44.8183 55.8906 44.8241 59.1025 44.8319 62.3145Z" fill="#001219"/>
<path d="M47.6195 64.2186C46.2372 64.8603 44.8335 63.7843 44.8316 62.3147C44.8238 59.1028 44.818 55.8908 44.8141 52.6789C44.8122 50.4338 42.7668 51.5506 41.6403 51.0329C40.2153 50.3776 40.8105 48.5202 42.3829 48.5164C44.4819 48.5099 46.5816 48.5093 48.682 48.5144C48.7492 48.5144 48.7828 48.5487 48.7828 48.6172C48.7931 53.0816 48.7931 57.544 48.7828 62.0045C48.7809 63.0475 48.5521 63.7823 47.6195 64.2186Z" fill="#FF9500"/>
</svg>
